<svg id="visual" viewBox="0 0 900 600" width="900" height="600" xmlns="http://www.w3.org/2000/svg" xmlns:xlink="http://www.w3.org/1999/xlink" version="1.1"><rect x="0" y="0" width="900" height="600" fill="#002233"></rect><path d="M0 381L21.5 401.7C43 422.3 86 463.7 128.8 472.2C171.7 480.7 214.3 456.3 257.2 454C300 451.7 343 471.3 385.8 466.5C428.7 461.7 471.3 432.3 514.2 420C557 407.7 600 412.3 642.8 408.2C685.7 404 728.3 391 771.2 393C814 395 857 412 878.5 420.5L900 429L900 601L878.5 601C857 601 814 601 771.2 601C728.3 601 685.7 601 642.8 601C600 601 557 601 514.2 601C471.3 601 428.7 601 385.8 601C343 601 300 601 257.2 601C214.3 601 171.7 601 128.8 601C86 601 43 601 21.5 601L0 601Z" fill="#0066FF" stroke-linecap="round" stroke-linejoin="miter"></path></svg>