<svg id="visual" viewBox="0 0 900 600" width="900" height="600" xmlns="http://www.w3.org/2000/svg" xmlns:xlink="http://www.w3.org/1999/xlink" version="1.1"><rect x="0" y="0" width="900" height="600" fill="#d1d1d1"></rect><path d="M0 540L15 531.5C30 523 60 506 90 506.8C120 507.7 150 526.3 180 533.3C210 540.3 240 535.7 270 535C300 534.3 330 537.7 360 533.2C390 528.7 420 516.3 450 514.3C480 512.3 510 520.7 540 527.3C570 534 600 539 630 532.2C660 525.3 690 506.7 720 501.7C750 496.7 780 505.3 810 509.5C840 513.7 870 513.3 885 513.2L900 513L900 601L885 601C870 601 840 601 810 601C780 601 750 601 720 601C690 601 660 601 630 601C600 601 570 601 540 601C510 601 480 601 450 601C420 601 390 601 360 601C330 601 300 601 270 601C240 601 210 601 180 601C150 601 120 601 90 601C60 601 30 601 15 601L0 601Z" fill="#202020" stroke-linecap="round" stroke-linejoin="miter"></path></svg>