<svg id="visual" viewBox="0 0 900 600" width="900" height="600" xmlns="http://www.w3.org/2000/svg" xmlns:xlink="http://www.w3.org/1999/xlink" version="1.1"><rect x="0" y="0" width="900" height="600" fill="#202020"></rect><path d="M0 459L21.5 450.5C43 442 86 425 128.8 412.8C171.7 400.7 214.3 393.3 257.2 406.7C300 420 343 454 385.8 467.3C428.7 480.7 471.3 473.3 514.2 457C557 440.7 600 415.3 642.8 420.2C685.7 425 728.3 460 771.2 470C814 480 857 465 878.5 457.5L900 450L900 601L878.5 601C857 601 814 601 771.2 601C728.3 601 685.7 601 642.8 601C600 601 557 601 514.2 601C471.3 601 428.7 601 385.8 601C343 601 300 601 257.2 601C214.3 601 171.7 601 128.8 601C86 601 43 601 21.5 601L0 601Z" fill="#d1d1d1" stroke-linecap="round" stroke-linejoin="miter"></path></svg>