<svg id="visual" viewBox="0 0 960 540" width="960" height="540" xmlns="http://www.w3.org/2000/svg" xmlns:xlink="http://www.w3.org/1999/xlink" version="1.1"><rect x="0" y="0" width="960" height="540" fill="#131313"></rect><defs><linearGradient id="grad1_0" x1="43.8%" y1="0%" x2="100%" y2="100%"><stop offset="14.444444444444446%" stop-color="#131313" stop-opacity="1"></stop><stop offset="85.55555555555554%" stop-color="#131313" stop-opacity="1"></stop></linearGradient></defs><defs><linearGradient id="grad2_0" x1="0%" y1="0%" x2="56.3%" y2="100%"><stop offset="14.444444444444446%" stop-color="#131313" stop-opacity="1"></stop><stop offset="85.55555555555554%" stop-color="#131313" stop-opacity="1"></stop></linearGradient></defs><g transform="translate(960, 0)"><path d="M0 189C-27 188.7 -54 188.4 -72.3 174.6C-90.7 160.9 -100.3 133.7 -114.6 114.6C-128.8 95.4 -147.6 84.3 -160.8 66.6C-173.9 48.8 -181.5 24.4 -189 0L0 0Z" fill="#fdfdfd"></path></g><g transform="translate(0, 540)"><path d="M0 -189C20.1 -173.7 40.3 -158.4 62 -149.7C83.7 -140.9 107 -138.7 127.3 -127.3C147.6 -115.8 164.8 -95.1 174.6 -72.3C184.4 -49.6 186.7 -24.8 189 0L0 0Z" fill="#fdfdfd"></path></g></svg>